<svg width="379" height="116" viewBox="0 0 379 116" fill="none" xmlns="http://www.w3.org/2000/svg">
<g filter="url(#filter0_d_147_69608)">
<rect x="8" y="4" width="100" height="100" rx="50" fill="#FFCE54"/>
<g filter="url(#filter1_d_147_69608)">
<path d="M72.8136 57.9021L59.9703 46.7161C58.8409 45.7324 57.1591 45.7324 56.0297 46.7161L43.1864 57.9021C42.7503 58.282 42.5 58.832 42.5 59.4103V69.5C42.5 70.8807 41.3807 72 40 72H32.5C31.1193 72 30 70.8807 30 69.5V56.4774C30 53.6287 31.2149 50.9153 33.3398 49.018L52.0059 32.3519C55.4205 29.3032 60.5795 29.3032 63.9941 32.3519L82.6602 49.018C84.7851 50.9153 86 53.6287 86 56.4774V69.5C86 70.8807 84.8807 72 83.5 72H76C74.6193 72 73.5 70.8807 73.5 69.5V59.4103C73.5 58.832 73.2497 58.282 72.8136 57.9021Z" fill="white"/>
</g>
</g>
<path d="M150.112 64.1199C151.237 64.1199 152.311 64.0946 153.335 64.0442C154.358 63.9937 155.177 63.918 155.791 63.817V55.2618C155.33 55.1609 154.639 55.0599 153.718 54.959C152.798 54.858 151.953 54.8076 151.186 54.8076C150.111 54.8076 149.088 54.8833 148.116 55.0347C147.195 55.1356 146.377 55.3628 145.66 55.7161C144.944 56.0694 144.381 56.5489 143.972 57.1546C143.563 57.7603 143.358 58.5173 143.358 59.4259C143.358 61.1924 143.946 62.429 145.123 63.1356C146.351 63.7918 148.014 64.1199 150.112 64.1199ZM149.191 31.1104C152.567 31.1104 155.381 31.489 157.632 32.2461C159.884 33.0032 161.674 34.0883 163.004 35.5016C164.386 36.9148 165.358 38.6309 165.921 40.6498C166.483 42.6688 166.765 44.9148 166.765 47.388V70.858C165.128 71.2114 162.851 71.6151 159.935 72.0694C157.018 72.5741 153.488 72.8265 149.344 72.8265C146.735 72.8265 144.356 72.5994 142.207 72.1451C140.109 71.6909 138.293 70.959 136.758 69.9495C135.223 68.8896 134.046 67.5268 133.228 65.8612C132.409 64.1956 132 62.1514 132 59.7287C132 57.4069 132.46 55.4385 133.381 53.8233C134.353 52.2082 135.633 50.9211 137.219 49.9621C138.805 49.0032 140.621 48.3218 142.667 47.918C144.714 47.4637 146.837 47.2366 149.037 47.2366C150.521 47.2366 151.825 47.3123 152.951 47.4637C154.128 47.5647 155.074 47.7161 155.791 47.918V46.858C155.791 44.9401 155.202 43.4006 154.025 42.2397C152.849 41.0789 150.802 40.4984 147.886 40.4984C145.942 40.4984 144.023 40.6498 142.13 40.9527C140.237 41.205 138.6 41.5836 137.219 42.0883L135.76 33.0032C136.426 32.8013 137.244 32.5994 138.216 32.3975C139.239 32.1451 140.339 31.9432 141.516 31.7918C142.693 31.5899 143.921 31.4385 145.2 31.3375C146.53 31.1861 147.86 31.1104 149.191 31.1104Z" fill="white"/>
<path d="M199.284 50.8707C199.284 47.2366 198.798 44.6625 197.826 43.1483C196.905 41.6341 195.293 40.877 192.991 40.877C192.275 40.877 191.533 40.9274 190.765 41.0284C189.998 41.0789 189.256 41.1546 188.54 41.2555V71.9937H177.105V33.5331C178.077 33.2808 179.203 33.0284 180.482 32.776C181.812 32.4732 183.193 32.2208 184.626 32.0189C186.109 31.7666 187.619 31.5899 189.154 31.489C190.688 31.3375 192.198 31.2618 193.681 31.2618C196.598 31.2618 198.951 31.6404 200.742 32.3975C202.584 33.1041 204.093 33.9621 205.27 34.9716C206.907 33.8107 208.774 32.9022 210.872 32.2461C213.021 31.5899 214.991 31.2618 216.781 31.2618C220.005 31.2618 222.639 31.7161 224.686 32.6246C226.784 33.4826 228.446 34.7192 229.674 36.3344C230.902 37.9495 231.746 39.8675 232.207 42.0883C232.667 44.3091 232.897 46.7823 232.897 49.5079V71.9937H221.463V50.8707C221.463 47.2366 220.977 44.6625 220.005 43.1483C219.084 41.6341 217.472 40.877 215.17 40.877C214.556 40.877 213.686 41.0284 212.56 41.3312C211.486 41.6341 210.591 42.0126 209.874 42.4669C210.233 43.6278 210.463 44.8644 210.565 46.1767C210.667 47.4385 210.719 48.8013 210.719 50.265V71.9937H199.284V50.8707Z" fill="white"/>
<path d="M258.707 64.1199C259.832 64.1199 260.907 64.0946 261.93 64.0442C262.953 63.9937 263.772 63.918 264.386 63.817V55.2618C263.925 55.1609 263.235 55.0599 262.314 54.959C261.393 54.858 260.549 54.8076 259.781 54.8076C258.707 54.8076 257.683 54.8833 256.711 55.0347C255.79 55.1356 254.972 55.3628 254.256 55.7161C253.539 56.0694 252.977 56.5489 252.567 57.1546C252.158 57.7603 251.953 58.5173 251.953 59.4259C251.953 61.1924 252.542 62.429 253.718 63.1356C254.946 63.7918 256.609 64.1199 258.707 64.1199ZM257.786 31.1104C261.163 31.1104 263.976 31.489 266.228 32.2461C268.479 33.0032 270.269 34.0883 271.6 35.5016C272.981 36.9148 273.953 38.6309 274.516 40.6498C275.079 42.6688 275.36 44.9148 275.36 47.388V70.858C273.723 71.2114 271.446 71.6151 268.53 72.0694C265.614 72.5741 262.083 72.8265 257.939 72.8265C255.33 72.8265 252.951 72.5994 250.802 72.1451C248.704 71.6909 246.888 70.959 245.353 69.9495C243.818 68.8896 242.642 67.5268 241.823 65.8612C241.005 64.1956 240.595 62.1514 240.595 59.7287C240.595 57.4069 241.056 55.4385 241.977 53.8233C242.949 52.2082 244.228 50.9211 245.814 49.9621C247.4 49.0032 249.216 48.3218 251.263 47.918C253.309 47.4637 255.432 47.2366 257.632 47.2366C259.116 47.2366 260.421 47.3123 261.546 47.4637C262.723 47.5647 263.67 47.7161 264.386 47.918V46.858C264.386 44.9401 263.797 43.4006 262.621 42.2397C261.444 41.0789 259.397 40.4984 256.481 40.4984C254.537 40.4984 252.618 40.6498 250.725 40.9527C248.832 41.205 247.195 41.5836 245.814 42.0883L244.356 33.0032C245.021 32.8013 245.839 32.5994 246.811 32.3975C247.835 32.1451 248.935 31.9432 250.111 31.7918C251.288 31.5899 252.516 31.4385 253.795 31.3375C255.125 31.1861 256.456 31.1104 257.786 31.1104Z" fill="white"/>
<path d="M310.028 42.164C309.005 41.9117 307.802 41.6593 306.421 41.4069C305.04 41.1041 303.556 40.9527 301.97 40.9527C301.253 40.9527 300.384 41.0284 299.36 41.1798C298.388 41.2808 297.647 41.4069 297.135 41.5584V71.9937H285.7V34.2902C287.747 33.5836 290.151 32.9274 292.914 32.3218C295.728 31.6656 298.849 31.3375 302.277 31.3375C302.891 31.3375 303.633 31.388 304.502 31.489C305.372 31.5394 306.242 31.6404 307.112 31.7918C307.981 31.8927 308.851 32.0442 309.721 32.2461C310.591 32.3975 311.332 32.5994 311.946 32.8517L310.028 42.164Z" fill="white"/>
<path d="M324.709 66.0126C324.709 68.2839 323.967 70.0252 322.484 71.2366C321.051 72.3975 319.414 72.9779 317.572 72.9779C315.73 72.9779 314.067 72.3975 312.584 71.2366C311.151 70.0252 310.435 68.2839 310.435 66.0126C310.435 63.7413 311.151 62.0252 312.584 60.8644C314.067 59.653 315.73 59.0473 317.572 59.0473C319.414 59.0473 321.051 59.653 322.484 60.8644C323.967 62.0252 324.709 63.7413 324.709 66.0126Z" fill="white"/>
<path d="M332.007 22.2524L343.442 20.4353V32.1703H357.179V41.5584H343.442V55.5647C343.442 57.9369 343.851 59.8297 344.67 61.2429C345.54 62.6562 347.254 63.3628 349.812 63.3628C351.04 63.3628 352.293 63.2618 353.572 63.0599C354.902 62.8076 356.105 62.4795 357.179 62.0757L358.791 70.858C357.409 71.4132 355.874 71.8927 354.186 72.2965C352.498 72.7003 350.426 72.9022 347.97 72.9022C344.849 72.9022 342.265 72.4984 340.219 71.6909C338.172 70.8328 336.535 69.6719 335.307 68.2082C334.079 66.694 333.209 64.877 332.698 62.7571C332.237 60.6372 332.007 58.2902 332.007 55.7161V22.2524Z" fill="white"/>
<path d="M362.73 86C362.014 86 360.965 85.9243 359.584 85.7729C358.151 85.6215 356.821 85.3438 355.593 84.9401L357.128 75.7792C357.895 76.0315 358.612 76.2082 359.277 76.3092C359.891 76.4101 360.684 76.4606 361.656 76.4606C363.447 76.4606 364.7 75.9306 365.416 74.8707C366.133 73.8107 366.491 72.2713 366.491 70.2524V32.1703H377.926V70.5552C377.926 75.8044 376.621 79.6909 374.012 82.2145C371.402 84.7382 367.642 86 362.73 86ZM379 20.6625C379 22.7319 378.309 24.3722 376.928 25.5836C375.598 26.7445 374.012 27.3249 372.17 27.3249C370.328 27.3249 368.716 26.7445 367.335 25.5836C366.005 24.3722 365.34 22.7319 365.34 20.6625C365.34 18.5931 366.005 16.9779 367.335 15.817C368.716 14.6057 370.328 14 372.17 14C374.012 14 375.598 14.6057 376.928 15.817C378.309 16.9779 379 18.5931 379 20.6625Z" fill="white"/>
<defs>
<filter id="filter0_d_147_69608" x="0" y="0" width="116" height="116" filterUnits="userSpaceOnUse" color-interpolation-filters="sRGB">
<feFlood flood-opacity="0" result="BackgroundImageFix"/>
<feColorMatrix in="SourceAlpha" type="matrix" values="0 0 0 0 0 0 0 0 0 0 0 0 0 0 0 0 0 0 127 0" result="hardAlpha"/>
<feOffset dy="4"/>
<feGaussianBlur stdDeviation="4"/>
<feComposite in2="hardAlpha" operator="out"/>
<feColorMatrix type="matrix" values="0 0 0 0 0.866667 0 0 0 0 0.659389 0 0 0 0 0.126389 0 0 0 0.25 0"/>
<feBlend mode="normal" in2="BackgroundImageFix" result="effect1_dropShadow_147_69608"/>
<feBlend mode="normal" in="SourceGraphic" in2="effect1_dropShadow_147_69608" result="shape"/>
</filter>
<filter id="filter1_d_147_69608" x="23" y="26.0653" width="70" height="55.9347" filterUnits="userSpaceOnUse" color-interpolation-filters="sRGB">
<feFlood flood-opacity="0" result="BackgroundImageFix"/>
<feColorMatrix in="SourceAlpha" type="matrix" values="0 0 0 0 0 0 0 0 0 0 0 0 0 0 0 0 0 0 127 0" result="hardAlpha"/>
<feOffset dy="3"/>
<feGaussianBlur stdDeviation="3.5"/>
<feComposite in2="hardAlpha" operator="out"/>
<feColorMatrix type="matrix" values="0 0 0 0 0 0 0 0 0 0 0 0 0 0 0 0 0 0 0.2 0"/>
<feBlend mode="normal" in2="BackgroundImageFix" result="effect1_dropShadow_147_69608"/>
<feBlend mode="normal" in="SourceGraphic" in2="effect1_dropShadow_147_69608" result="shape"/>
</filter>
</defs>
</svg>
