
<svg width="371" height="100" viewBox="0 0 371 100" fill="none" xmlns="http://www.w3.org/2000/svg">
    <rect width="100" height="100" rx="50" fill="#FFCE54"/>
    <path d="M64.8136 53.9021L51.9703 42.7161C50.8409 41.7324 49.1591 41.7324 48.0297 42.7161L35.1864 53.9021C34.7503 54.282 34.5 54.832 34.5 55.4103V65.5C34.5 66.8807 33.3807 68 32 68H24.5C23.1193 68 22 66.8807 22 65.5V52.4774C22 49.6287 23.2149 46.9153 25.3398 45.018L44.0059 28.3519C47.4205 25.3032 52.5795 25.3032 55.9941 28.3519L74.6602 45.018C76.7851 46.9153 78 49.6287 78 52.4774V65.5C78 66.8807 76.8807 68 75.5 68H68C66.6193 68 65.5 66.8807 65.5 65.5V55.4103C65.5 54.832 65.2497 54.282 64.8136 53.9021Z" fill="#2E2F2D"/>
    <path d="M142.112 60.1199C143.237 60.1199 144.311 60.0946 145.335 60.0442C146.358 59.9937 147.177 59.918 147.791 59.817V51.2618C147.33 51.1609 146.639 51.0599 145.718 50.959C144.798 50.858 143.953 50.8076 143.186 50.8076C142.111 50.8076 141.088 50.8833 140.116 51.0347C139.195 51.1356 138.377 51.3628 137.66 51.7161C136.944 52.0694 136.381 52.5489 135.972 53.1546C135.563 53.7603 135.358 54.5173 135.358 55.4259C135.358 57.1924 135.946 58.429 137.123 59.1356C138.351 59.7918 140.014 60.1199 142.112 60.1199ZM141.191 27.1104C144.567 27.1104 147.381 27.489 149.632 28.2461C151.884 29.0032 153.674 30.0883 155.004 31.5016C156.386 32.9148 157.358 34.6309 157.921 36.6498C158.483 38.6688 158.765 40.9148 158.765 43.388V66.858C157.128 67.2114 154.851 67.6151 151.935 68.0694C149.018 68.5741 145.488 68.8265 141.344 68.8265C138.735 68.8265 136.356 68.5994 134.207 68.1451C132.109 67.6909 130.293 66.959 128.758 65.9495C127.223 64.8896 126.046 63.5268 125.228 61.8612C124.409 60.1956 124 58.1514 124 55.7287C124 53.4069 124.46 51.4385 125.381 49.8233C126.353 48.2082 127.633 46.9211 129.219 45.9621C130.805 45.0032 132.621 44.3218 134.667 43.918C136.714 43.4637 138.837 43.2366 141.037 43.2366C142.521 43.2366 143.825 43.3123 144.951 43.4637C146.128 43.5647 147.074 43.7161 147.791 43.918V42.858C147.791 40.9401 147.202 39.4006 146.025 38.2397C144.849 37.0789 142.802 36.4984 139.886 36.4984C137.942 36.4984 136.023 36.6498 134.13 36.9527C132.237 37.205 130.6 37.5836 129.219 38.0883L127.76 29.0032C128.426 28.8013 129.244 28.5994 130.216 28.3975C131.239 28.1451 132.339 27.9432 133.516 27.7918C134.693 27.5899 135.921 27.4385 137.2 27.3375C138.53 27.1861 139.86 27.1104 141.191 27.1104Z" fill="#2E2F2D"/>
    <path d="M191.284 46.8707C191.284 43.2366 190.798 40.6625 189.826 39.1483C188.905 37.6341 187.293 36.877 184.991 36.877C184.275 36.877 183.533 36.9274 182.765 37.0284C181.998 37.0789 181.256 37.1546 180.54 37.2555V67.9937H169.105V29.5331C170.077 29.2808 171.203 29.0284 172.482 28.776C173.812 28.4732 175.193 28.2208 176.626 28.0189C178.109 27.7666 179.619 27.5899 181.154 27.489C182.688 27.3375 184.198 27.2618 185.681 27.2618C188.598 27.2618 190.951 27.6404 192.742 28.3975C194.584 29.1041 196.093 29.9621 197.27 30.9716C198.907 29.8107 200.774 28.9022 202.872 28.2461C205.021 27.5899 206.991 27.2618 208.781 27.2618C212.005 27.2618 214.639 27.7161 216.686 28.6246C218.784 29.4826 220.446 30.7192 221.674 32.3344C222.902 33.9495 223.746 35.8675 224.207 38.0883C224.667 40.3091 224.898 42.7823 224.898 45.5079V67.9937H213.463V46.8707C213.463 43.2366 212.977 40.6625 212.005 39.1483C211.084 37.6341 209.472 36.877 207.17 36.877C206.556 36.877 205.686 37.0284 204.56 37.3312C203.486 37.6341 202.591 38.0126 201.874 38.4669C202.233 39.6278 202.463 40.8644 202.565 42.1767C202.667 43.4385 202.719 44.8013 202.719 46.265V67.9937H191.284V46.8707Z" fill="#2E2F2D"/>
    <path d="M250.707 60.1199C251.832 60.1199 252.907 60.0946 253.93 60.0442C254.953 59.9937 255.772 59.918 256.386 59.817V51.2618C255.925 51.1609 255.235 51.0599 254.314 50.959C253.393 50.858 252.549 50.8076 251.781 50.8076C250.707 50.8076 249.683 50.8833 248.711 51.0347C247.79 51.1356 246.972 51.3628 246.256 51.7161C245.539 52.0694 244.977 52.5489 244.567 53.1546C244.158 53.7603 243.953 54.5173 243.953 55.4259C243.953 57.1924 244.542 58.429 245.718 59.1356C246.946 59.7918 248.609 60.1199 250.707 60.1199ZM249.786 27.1104C253.163 27.1104 255.976 27.489 258.228 28.2461C260.479 29.0032 262.269 30.0883 263.6 31.5016C264.981 32.9148 265.953 34.6309 266.516 36.6498C267.079 38.6688 267.36 40.9148 267.36 43.388V66.858C265.723 67.2114 263.446 67.6151 260.53 68.0694C257.614 68.5741 254.083 68.8265 249.939 68.8265C247.33 68.8265 244.951 68.5994 242.802 68.1451C240.704 67.6909 238.888 66.959 237.353 65.9495C235.818 64.8896 234.642 63.5268 233.823 61.8612C233.005 60.1956 232.595 58.1514 232.595 55.7287C232.595 53.4069 233.056 51.4385 233.977 49.8233C234.949 48.2082 236.228 46.9211 237.814 45.9621C239.4 45.0032 241.216 44.3218 243.263 43.918C245.309 43.4637 247.432 43.2366 249.632 43.2366C251.116 43.2366 252.421 43.3123 253.546 43.4637C254.723 43.5647 255.67 43.7161 256.386 43.918V42.858C256.386 40.9401 255.797 39.4006 254.621 38.2397C253.444 37.0789 251.397 36.4984 248.481 36.4984C246.537 36.4984 244.618 36.6498 242.725 36.9527C240.832 37.205 239.195 37.5836 237.814 38.0883L236.356 29.0032C237.021 28.8013 237.839 28.5994 238.811 28.3975C239.835 28.1451 240.935 27.9432 242.111 27.7918C243.288 27.5899 244.516 27.4385 245.795 27.3375C247.125 27.1861 248.456 27.1104 249.786 27.1104Z" fill="#2E2F2D"/>
    <path d="M302.028 38.164C301.005 37.9117 299.802 37.6593 298.421 37.4069C297.04 37.1041 295.556 36.9527 293.97 36.9527C293.253 36.9527 292.384 37.0284 291.36 37.1798C290.388 37.2808 289.647 37.4069 289.135 37.5584V67.9937H277.7V30.2902C279.747 29.5836 282.151 28.9274 284.914 28.3218C287.728 27.6656 290.849 27.3375 294.277 27.3375C294.891 27.3375 295.633 27.388 296.502 27.489C297.372 27.5394 298.242 27.6404 299.112 27.7918C299.981 27.8927 300.851 28.0442 301.721 28.2461C302.591 28.3975 303.332 28.5994 303.946 28.8517L302.028 38.164Z" fill="#2E2F2D"/>
    <path d="M316.709 62.0126C316.709 64.2839 315.967 66.0252 314.484 67.2366C313.051 68.3975 311.414 68.9779 309.572 68.9779C307.73 68.9779 306.067 68.3975 304.584 67.2366C303.151 66.0252 302.435 64.2839 302.435 62.0126C302.435 59.7413 303.151 58.0252 304.584 56.8644C306.067 55.653 307.73 55.0473 309.572 55.0473C311.414 55.0473 313.051 55.653 314.484 56.8644C315.967 58.0252 316.709 59.7413 316.709 62.0126Z" fill="#2E2F2D"/>
    <path d="M324.007 18.2524L335.442 16.4353V28.1703H349.179V37.5584H335.442V51.5647C335.442 53.9369 335.851 55.8297 336.67 57.2429C337.54 58.6562 339.254 59.3628 341.812 59.3628C343.04 59.3628 344.293 59.2618 345.572 59.0599C346.902 58.8076 348.105 58.4795 349.179 58.0757L350.791 66.858C349.409 67.4133 347.874 67.8927 346.186 68.2965C344.498 68.7003 342.426 68.9022 339.97 68.9022C336.849 68.9022 334.265 68.4984 332.219 67.6909C330.172 66.8328 328.535 65.6719 327.307 64.2082C326.079 62.694 325.209 60.877 324.698 58.7571C324.237 56.6372 324.007 54.2902 324.007 51.7161V18.2524Z" fill="#2E2F2D"/>
    <path d="M354.73 82C354.014 82 352.965 81.9243 351.584 81.7729C350.151 81.6214 348.821 81.3439 347.593 80.9401L349.128 71.7792C349.896 72.0315 350.612 72.2082 351.277 72.3092C351.891 72.4101 352.684 72.4606 353.656 72.4606C355.447 72.4606 356.7 71.9306 357.416 70.8707C358.133 69.8107 358.491 68.2713 358.491 66.2524V28.1703H369.926V66.5552C369.926 71.8044 368.621 75.6909 366.012 78.2145C363.402 80.7382 359.642 82 354.73 82ZM371 16.6625C371 18.7319 370.309 20.3722 368.928 21.5836C367.598 22.7445 366.012 23.3249 364.17 23.3249C362.328 23.3249 360.716 22.7445 359.335 21.5836C358.005 20.3722 357.34 18.7319 357.34 16.6625C357.34 14.5931 358.005 12.9779 359.335 11.817C360.716 10.6057 362.328 10 364.17 10C366.012 10 367.598 10.6057 368.928 11.817C370.309 12.9779 371 14.5931 371 16.6625Z" fill="#2E2F2D"/>
</svg>
