<svg width="48" height="48" viewBox="0 0 48 48" fill="none" xmlns="http://www.w3.org/2000/svg">
<g clip-path="url(#clip0_2001_1595)">
<path d="M48 24C48 10.7452 37.2548 0 24 0C10.7452 0 0 10.7452 0 24C0 37.2548 10.7452 48 24 48C37.2548 48 48 37.2548 48 24Z" fill="#FFCE54"/>
<path d="M31.4068 25.9401L24.9851 20.3383C24.4204 19.8457 23.5796 19.8457 23.0149 20.3383L16.5932 25.9401C16.3752 26.1303 16.25 26.4057 16.25 26.6953V31.7481C16.25 32.4395 15.6903 33 15 33H11.25C10.5597 33 10 32.4395 10 31.7481V25.2266C10 23.8 10.6074 22.4412 11.6699 21.4911L21.003 13.145C22.7103 11.6183 25.2897 11.6183 26.997 13.145L36.3301 21.4911C37.3926 22.4412 38 23.8 38 25.2266V31.7481C38 32.4395 37.4403 33 36.75 33H33C32.3097 33 31.75 32.4395 31.75 31.7481V26.6953C31.75 26.4057 31.6248 26.1303 31.4068 25.9401Z" fill="#111928"/>
</g>
<defs>
<clipPath id="clip0_2001_1595">
<rect width="48" height="48" fill="white"/>
</clipPath>
</defs>
</svg>
