<svg width="193" height="36" viewBox="0 0 193 36" fill="none" xmlns="http://www.w3.org/2000/svg">
<rect width="78" height="36" rx="18" fill="url(#paint0_linear_537_1139)"/>
<path d="M14 18.0146C14 16.8877 14.1806 15.8385 14.5418 14.867C14.9031 13.8761 15.4148 13.0213 16.0771 12.3024C16.7594 11.5835 17.5822 11.02 18.5455 10.612C19.5087 10.204 20.5924 10 21.7965 10C23.2816 10 24.6863 10.2623 26.0108 10.7869L25.2282 13.6721C24.8067 13.4973 24.3251 13.3515 23.7833 13.235C23.2615 13.1184 22.6996 13.0601 22.0975 13.0601C20.6727 13.0601 19.589 13.4973 18.8465 14.3716C18.104 15.2265 17.7327 16.4408 17.7327 18.0146C17.7327 19.5301 18.0839 20.7347 18.7863 21.6284C19.4887 22.5027 20.6727 22.9399 22.3384 22.9399C22.9605 22.9399 23.5725 22.8816 24.1746 22.765C24.7766 22.6485 25.2984 22.5027 25.7399 22.3279L26.2517 25.2423C25.8503 25.4366 25.2382 25.6114 24.4154 25.7668C23.6127 25.9223 22.7799 26 21.9169 26C20.5723 26 19.3984 25.8057 18.3949 25.4171C17.4116 25.0091 16.5888 24.4554 15.9266 23.7559C15.2844 23.037 14.8027 22.1919 14.4816 21.2204C14.1605 20.2295 14 19.1609 14 18.0146Z" fill="#19191E"/>
<path d="M38.6442 13.5556C38.3432 13.4584 37.9217 13.3613 37.3799 13.2641C36.8581 13.1475 36.246 13.0893 35.5436 13.0893C35.1423 13.0893 34.7108 13.1281 34.2492 13.2058C33.8077 13.2835 33.4967 13.3515 33.3161 13.4098V25.6211H29.6737V11.1075C30.3761 10.8549 31.249 10.6217 32.2926 10.408C33.3562 10.1749 34.5302 10.0583 35.8146 10.0583C36.0554 10.0583 36.3363 10.0777 36.6574 10.1166C36.9785 10.136 37.2996 10.1749 37.6207 10.2332C37.9418 10.272 38.2529 10.3303 38.5539 10.408C38.8549 10.4663 39.0957 10.5246 39.2763 10.5829L38.6442 13.5556Z" fill="#19191E"/>
<path d="M51.3871 17.6066C51.3871 16.0134 51.1764 14.867 50.755 14.1676C50.3536 13.4487 49.591 13.0893 48.4672 13.0893C48.0658 13.0893 47.6243 13.1184 47.1427 13.1767C46.661 13.235 46.2998 13.2835 46.059 13.3224V25.6211H42.4166V10.8743C43.119 10.68 44.0321 10.4954 45.1559 10.3206C46.2998 10.1457 47.5039 10.0583 48.7682 10.0583C49.8519 10.0583 50.7349 10.1943 51.4172 10.4663C52.1196 10.7383 52.7016 11.0978 53.1632 11.5446C53.3839 11.3892 53.6649 11.224 54.006 11.0492C54.3472 10.8743 54.7285 10.7189 55.1499 10.5829C55.5713 10.4274 56.0128 10.3012 56.4744 10.204C56.9561 10.1069 57.4377 10.0583 57.9193 10.0583C59.1435 10.0583 60.1469 10.2332 60.9296 10.5829C61.7323 10.9132 62.3544 11.3892 62.7959 12.0109C63.2575 12.6132 63.5685 13.3515 63.7291 14.2259C63.9097 15.0808 64 16.0231 64 17.0528V25.6211H60.3576V17.6066C60.3576 16.0134 60.1569 14.867 59.7556 14.1676C59.3542 13.4487 58.5816 13.0893 57.4377 13.0893C56.8557 13.0893 56.3038 13.1864 55.7821 13.3807C55.2603 13.5556 54.869 13.7304 54.6081 13.9053C54.7686 14.391 54.879 14.9059 54.9392 15.4499C54.9994 15.9939 55.0295 16.5768 55.0295 17.1985V25.6211H51.3871V17.6066Z" fill="#19191E"/>
<path d="M91.9928 24.0789C92.4892 24.0789 92.9632 24.068 93.4151 24.0463C93.8665 24.0246 94.2279 23.992 94.4989 23.9485V20.265C94.2954 20.2216 93.9905 20.1781 93.5841 20.1346C93.1781 20.0912 92.8052 20.0695 92.4667 20.0695C91.9923 20.0695 91.5409 20.102 91.1119 20.1672C90.7055 20.2107 90.3445 20.3085 90.0281 20.4606C89.7121 20.6127 89.4637 20.8192 89.2832 21.08C89.1027 21.3408 89.0122 21.6667 89.0122 22.0579C89.0122 22.8185 89.2717 23.3509 89.7911 23.6551C90.333 23.9377 91.0669 24.0789 91.9928 24.0789ZM91.5863 9.86649C93.0761 9.86649 94.318 10.0295 95.3113 10.3555C96.3051 10.6814 97.095 11.1486 97.682 11.7571C98.2918 12.3656 98.7208 13.1045 98.9692 13.9737C99.2172 14.843 99.3417 15.8101 99.3417 16.8749V26.98C98.6193 27.1322 97.6144 27.306 96.3276 27.5016C95.0404 27.7189 93.4826 27.8276 91.6538 27.8276C90.5025 27.8276 89.4527 27.7298 88.5043 27.5342C87.5785 27.3387 86.7771 27.0235 86.0997 26.5889C85.4223 26.1325 84.9029 25.5458 84.5419 24.8286C84.1805 24.1115 84 23.2314 84 22.1883C84 21.1886 84.203 20.3411 84.6094 19.6457C85.0384 18.9503 85.6032 18.3961 86.3031 17.9832C87.003 17.5703 87.8044 17.277 88.7073 17.1031C89.6106 16.9075 90.5475 16.8097 91.5184 16.8097C92.1733 16.8097 92.7487 16.8423 93.2456 16.9075C93.765 16.951 94.1825 17.0162 94.4989 17.1031V16.6467C94.4989 15.8209 94.239 15.1581 93.7196 14.6583C93.2006 14.1585 92.2973 13.9085 91.0104 13.9085C90.1526 13.9085 89.3057 13.9737 88.4703 14.1042C87.635 14.2128 86.9126 14.3758 86.3031 14.5931L85.6593 10.6814C85.9532 10.5945 86.3142 10.5076 86.7431 10.4207C87.1945 10.312 87.68 10.2251 88.1994 10.1599C88.7188 10.0729 89.2607 10.0078 89.8251 9.96427C90.412 9.89909 90.999 9.86649 91.5863 9.86649Z" fill="#19191E"/>
<path d="M113.692 18.3744C113.692 16.8097 113.477 15.7014 113.048 15.0495C112.642 14.3975 111.93 14.0715 110.915 14.0715C110.599 14.0715 110.271 14.0932 109.932 14.1367C109.594 14.1585 109.266 14.1911 108.95 14.2345V27.469H103.904V10.9096C104.333 10.8009 104.83 10.6923 105.394 10.5836C105.981 10.4532 106.591 10.3446 107.223 10.2576C107.878 10.149 108.544 10.0729 109.221 10.0295C109.898 9.96425 110.565 9.93166 111.219 9.93166C112.506 9.93166 113.545 10.0947 114.335 10.4206C115.148 10.7249 115.814 11.0943 116.333 11.5289C117.056 11.0291 117.88 10.6379 118.805 10.3555C119.754 10.0729 120.623 9.93166 121.413 9.93166C122.836 9.93166 123.998 10.1273 124.901 10.5184C125.827 10.8878 126.561 11.4203 127.103 12.1157C127.645 12.8111 128.017 13.6369 128.22 14.5931C128.423 15.5492 128.525 16.6141 128.525 17.7876V27.469H123.479V18.3744C123.479 16.8097 123.265 15.7014 122.836 15.0495C122.429 14.3975 121.718 14.0715 120.702 14.0715C120.431 14.0715 120.047 14.1367 119.55 14.2671C119.076 14.3975 118.681 14.5605 118.365 14.7561C118.523 15.2559 118.625 15.7883 118.67 16.3533C118.715 16.8966 118.738 17.4834 118.738 18.1136V27.469H113.692V18.3744Z" fill="#19191E"/>
<path d="M139.914 24.0789C140.411 24.0789 140.885 24.068 141.337 24.0463C141.788 24.0246 142.15 23.992 142.421 23.9485V20.265C142.217 20.2216 141.913 20.1781 141.506 20.1346C141.1 20.0912 140.727 20.0695 140.388 20.0695C139.914 20.0695 139.463 20.102 139.034 20.1672C138.627 20.2107 138.266 20.3085 137.95 20.4606C137.634 20.6127 137.386 20.8192 137.205 21.08C137.024 21.3408 136.934 21.6667 136.934 22.0579C136.934 22.8185 137.194 23.3509 137.713 23.6551C138.255 23.9377 138.989 24.0789 139.914 24.0789ZM139.508 9.86649C140.998 9.86649 142.24 10.0295 143.233 10.3555C144.227 10.6814 145.017 11.1486 145.604 11.7571C146.214 12.3656 146.642 13.1045 146.891 13.9737C147.139 14.843 147.263 15.8101 147.263 16.8749V26.98C146.541 27.1322 145.536 27.306 144.249 27.5016C142.962 27.7189 141.404 27.8276 139.576 27.8276C138.424 27.8276 137.374 27.7298 136.426 27.5342C135.5 27.3387 134.699 27.0235 134.021 26.5889C133.344 26.1325 132.825 25.5458 132.464 24.8286C132.103 24.1115 131.922 23.2314 131.922 22.1883C131.922 21.1886 132.125 20.3411 132.532 19.6457C132.961 18.9503 133.525 18.3961 134.225 17.9832C134.925 17.5703 135.726 17.277 136.629 17.1031C137.532 16.9075 138.469 16.8097 139.44 16.8097C140.095 16.8097 140.671 16.8423 141.167 16.9075C141.687 16.951 142.105 17.0162 142.421 17.1031V16.6467C142.421 15.8209 142.161 15.1581 141.642 14.6583C141.122 14.1585 140.219 13.9085 138.932 13.9085C138.074 13.9085 137.227 13.9737 136.392 14.1042C135.557 14.2128 134.834 14.3758 134.225 14.5931L133.581 10.6814C133.875 10.5945 134.236 10.5076 134.665 10.4207C135.117 10.312 135.602 10.2251 136.121 10.1599C136.64 10.0729 137.182 10.0078 137.747 9.96427C138.334 9.89909 138.921 9.86649 139.508 9.86649Z" fill="#19191E"/>
<path d="M162.562 14.626C162.11 14.5174 161.579 14.4087 160.97 14.3001C160.361 14.1697 159.706 14.1045 159.006 14.1045C158.689 14.1045 158.306 14.1371 157.854 14.2023C157.425 14.2458 157.098 14.3001 156.872 14.3653V27.4694H151.826V11.2359C152.729 10.9317 153.79 10.6492 155.009 10.3884C156.251 10.1059 157.629 9.96464 159.141 9.96464C159.412 9.96464 159.74 9.98638 160.123 10.0299C160.507 10.0516 160.891 10.0951 161.275 10.1602C161.658 10.2037 162.042 10.2689 162.426 10.3558C162.81 10.421 163.137 10.508 163.408 10.6166L162.562 14.626Z" fill="#19191E"/>
<path d="M169.042 24.8941C169.042 25.872 168.715 26.6218 168.06 27.1434C167.428 27.6432 166.705 27.8931 165.892 27.8931C165.08 27.8931 164.346 27.6432 163.691 27.1434C163.059 26.6218 162.743 25.872 162.743 24.8941C162.743 23.9162 163.059 23.1773 163.691 22.6775C164.346 22.156 165.08 21.8952 165.892 21.8952C166.705 21.8952 167.428 22.156 168.06 22.6775C168.715 23.1773 169.042 23.9162 169.042 24.8941Z" fill="#19191E"/>
<path d="M172.261 6.05282L177.307 5.27046V10.323H183.369V14.3651H177.307V20.3956C177.307 21.417 177.488 22.2319 177.849 22.8404C178.233 23.4489 178.989 23.7531 180.118 23.7531C180.66 23.7531 181.213 23.7096 181.778 23.6227C182.364 23.5141 182.895 23.3728 183.369 23.199L184.081 26.9802C183.471 27.2193 182.793 27.4257 182.049 27.5996C181.304 27.7734 180.389 27.8604 179.305 27.8604C177.928 27.8604 176.788 27.6865 175.885 27.3388C174.982 26.9694 174.259 26.4695 173.717 25.8393C173.175 25.1874 172.791 24.4051 172.566 23.4923C172.362 22.5796 172.261 21.5691 172.261 20.4608V6.05282Z" fill="#19191E"/>
<path d="M185.82 33.5001C185.504 33.5001 185.041 33.4675 184.432 33.4023C183.8 33.3371 183.213 33.2176 182.671 33.0437L183.348 29.0995C183.687 29.2081 184.003 29.2842 184.296 29.3276C184.567 29.3711 184.917 29.3928 185.346 29.3928C186.137 29.3928 186.69 29.1646 187.006 28.7083C187.322 28.2519 187.48 27.5891 187.48 26.7199V10.3234H192.526V26.8502C192.526 29.1103 191.95 30.7837 190.799 31.8702C189.647 32.9568 187.988 33.5001 185.82 33.5001ZM193 5.36865C193 6.25964 192.695 6.96588 192.086 7.48746C191.499 7.98729 190.799 8.23719 189.986 8.23719C189.173 8.23719 188.462 7.98729 187.852 7.48746C187.265 6.96588 186.972 6.25964 186.972 5.36865C186.972 4.47766 187.265 3.78223 187.852 3.2824C188.462 2.76086 189.173 2.50008 189.986 2.50008C190.799 2.50008 191.499 2.76086 192.086 3.2824C192.695 3.78223 193 4.47766 193 5.36865Z" fill="#19191E"/>
<defs>
<linearGradient id="paint0_linear_537_1139" x1="40.1143" y1="1.80935e-07" x2="40.1143" y2="36" gradientUnits="userSpaceOnUse">
<stop stop-color="#FFCE54"/>
<stop offset="1" stop-color="#FFB331"/>
</linearGradient>
</defs>
</svg>
